<svg width="10" height="9" viewBox="0 0 10 9" fill="none" xmlns="http://www.w3.org/2000/svg">
<path d="M9.39895 3.76341C9.35803 3.75644 9.31662 3.75322 9.27519 3.75379H2.22039L2.37422 3.6787C2.52459 3.60401 2.66138 3.50237 2.77847 3.37836L4.75682 1.30222C5.01737 1.0412 5.06115 0.621302 4.86057 0.307323C4.62711 -0.0272568 4.17941 -0.0999029 3.86057 0.14509C3.83481 0.164894 3.81033 0.186481 3.78732 0.209711L0.209847 3.96403C-0.0697327 4.2571 -0.0699787 4.73252 0.209288 5.02592C0.209467 5.0261 0.209668 5.02631 0.209847 5.0265L3.78732 8.78082C4.06713 9.07363 4.52015 9.07298 4.79919 8.77934C4.82115 8.75623 4.84165 8.73164 4.86057 8.70573C5.06115 8.39176 5.01737 7.97186 4.75682 7.71084L2.78205 5.63095C2.67708 5.52066 2.55638 5.42819 2.4243 5.35688L2.20966 5.25552H9.23582C9.60132 5.26976 9.922 5.00182 9.99067 4.62479C10.0539 4.21545 9.78901 3.82981 9.39895 3.76341Z" fill="#7C68CB"/>
</svg>
